# xmcd CD database file
#
# Track frame offsets:
#	150
#	26615
#	76275
#	99100
#	124495
#	157872
#	197500
#
# Disc length: 3138 seconds
#
# Revision: 0
# Processed by: cddbd v1.5PL3 Copyright (c) Steve Scherf et al.
# Submitted via: CDex 1.51
#
DISCID=480c4007
DTITLE=Shigeo Maruyama Suikyo-za orchestra - Kick Off
DYEAR=1900
DGENRE=Jazz
TTITLE0=kick off
TTITLE1=tackle down
TTITLE2=yu yu
TTITLE3=norwegian wood
TTITLE4=oleo
TTITLE5=nefertiti
TTITLE6=straight no chaser
EXTD=
EXTT0=
EXTT1=
EXTT2=
EXTT3=
EXTT4=
EXTT5=
EXTT6=
PLAYORDER=
